<svg width="20" height="20" viewBox="0 0 20 20" fill="none" xmlns="http://www.w3.org/2000/svg">
<path d="M5.345 12.9883H14.655C14.8198 12.9883 14.9809 12.9394 15.1179 12.8478C15.2549 12.7563 15.3617 12.6261 15.4247 12.4739C15.4878 12.3216 15.5043 12.1541 15.4721 11.9925C15.44 11.8309 15.3607 11.6824 15.2442 11.5658L10.5892 6.91086C10.4329 6.75463 10.221 6.66687 10 6.66687C9.77903 6.66687 9.5671 6.75463 9.41083 6.91086L4.75583 11.5658C4.63932 11.6824 4.55998 11.8309 4.52784 11.9925C4.4957 12.1541 4.51221 12.3216 4.57527 12.4739C4.63832 12.6261 4.74511 12.7563 4.88211 12.8478C5.01912 12.9394 5.1802 12.9883 5.345 12.9883Z" fill="black"/>
</svg>
