<svg width="20" height="20" viewBox="0 0 20 20" fill="none" xmlns="http://www.w3.org/2000/svg">
<path d="M14.655 6.66693L5.345 6.66693C5.18021 6.66696 5.01913 6.71585 4.88212 6.80742C4.74511 6.89899 4.63833 7.02913 4.57527 7.18138C4.51221 7.33363 4.49571 7.50116 4.52785 7.66278C4.55999 7.82441 4.63933 7.97288 4.75584 8.08942L9.41084 12.7444C9.56711 12.9006 9.77903 12.9884 10 12.9884C10.221 12.9884 10.4329 12.9006 10.5892 12.7444L15.2442 8.08942C15.3607 7.97288 15.44 7.82441 15.4722 7.66278C15.5043 7.50116 15.4878 7.33363 15.4247 7.18138C15.3617 7.02913 15.2549 6.89899 15.1179 6.80742C14.9809 6.71586 14.8198 6.66696 14.655 6.66693Z" fill="black"/>
</svg>
