<svg width="20" height="20" viewBox="0 0 20 20" fill="none" xmlns="http://www.w3.org/2000/svg">
<path d="M14.5835 0.764282C13.6451 0.778878 12.7272 1.04083 11.9224 1.52367C11.1177 2.00652 10.4546 2.69317 10.0001 3.51428C9.54566 2.69317 8.88257 2.00652 8.07783 1.52367C7.27308 1.04083 6.35517 0.778878 5.41679 0.764282C3.92091 0.829274 2.51155 1.48366 1.49661 2.58448C0.481678 3.68529 -0.0563308 5.14305 0.000128002 6.63928C0.000128002 12.2851 9.13013 18.806 9.51846 19.0826L10.0001 19.4235L10.4818 19.0826C10.8701 18.8076 20.0001 12.2851 20.0001 6.63928C20.0566 5.14305 19.5186 3.68529 18.5036 2.58448C17.4887 1.48366 16.0793 0.829274 14.5835 0.764282Z" fill="black"/>
</svg>
